HIERARCHY
ROOT Hips
{
 OFFSET 0.000000 0.000000 0.000000
 CHANNELS 6 Xposition Yposition Zposition Yrotation Xrotation Zrotation
 JOINT Chest
 {
  OFFSET 0.000000 11.395451 -0.039534
  CHANNELS 3 Yrotation Xrotation Zrotation
  JOINT Chest2
  {
   OFFSET 0.000000 9.398669 0.071813
   CHANNELS 3 Yrotation Xrotation Zrotation
   JOINT Chest3
   {
    OFFSET 0.000000 8.489801 0.000000
    CHANNELS 3 Yrotation Xrotation Zrotation
    JOINT Chest4
    {
     OFFSET 0.000000 8.489801 0.000000
     CHANNELS 3 Yrotation Xrotation Zrotation
     JOINT Neck
     {
      OFFSET 0.000000 12.404889 0.000000
      CHANNELS 3 Yrotation Xrotation Zrotation
      JOINT Head
      {
       OFFSET 0.000000 8.903270 0.092239
       CHANNELS 3 Yrotation Xrotation Zrotation
       End Site
       {
        OFFSET 0.000000 17.592497 0.007158
       }
      }
     }
     JOINT RightCollar
     {
      OFFSET -3.196775 6.966722 0.000000
      CHANNELS 3 Yrotation Xrotation Zrotation
      JOINT RightShoulder
      {
       OFFSET -15.955896 0.000000 0.000000
       CHANNELS 3 Yrotation Xrotation Zrotation
       JOINT RightElbow
       {
        OFFSET -24.792472 0.000000 0.000000
        CHANNELS 3 Yrotation Xrotation Zrotation
        JOINT RightWrist
        {
         OFFSET -20.900115 0.000000 0.025002
         CHANNELS 3 Yrotation Xrotation Zrotation
         End Site
         {
          OFFSET -16.056692 0.000000 0.000000
         }
        }
       }
      }
     }
     JOINT LeftCollar
     {
      OFFSET 3.196775 6.966722 0.000000
      CHANNELS 3 Yrotation Xrotation Zrotation
      JOINT LeftShoulder
      {
       OFFSET 15.955896 0.000000 0.000000
       CHANNELS 3 Yrotation Xrotation Zrotation
       JOINT LeftElbow
       {
        OFFSET 24.792472 0.000000 0.000000
        CHANNELS 3 Yrotation Xrotation Zrotation
        JOINT LeftWrist
        {
         OFFSET 20.900115 0.000000 0.025002
         CHANNELS 3 Yrotation Xrotation Zrotation
         End Site
         {
          OFFSET 16.056692 0.000000 0.000000
         }
        }
       }
      }
     }
    }
   }
  }
 }
 JOINT RightHip
 {
  OFFSET -9.568995 0.193718 0.019767
  CHANNELS 3 Yrotation Xrotation Zrotation
  JOINT RightKnee
  {
   OFFSET 0.000000 -56.649296 0.015402
   CHANNELS 3 Yrotation Xrotation Zrotation
   JOINT RightAnkle
   {
    OFFSET 0.000000 -41.365147 0.021264
    CHANNELS 3 Yrotation Xrotation Zrotation
    JOINT RightToe
    {
     OFFSET 0.000000 -7.465940 17.672538
     CHANNELS 3 Yrotation Xrotation Zrotation
     End Site
     {
      OFFSET 0.000000 -1.736315 7.837145
     }
    }
   }
  }
 }
 JOINT LeftHip
 {
  OFFSET 9.568995 0.193718 0.019767
  CHANNELS 3 Yrotation Xrotation Zrotation
  JOINT LeftKnee
  {
   OFFSET 0.000000 -56.649296 0.015402
   CHANNELS 3 Yrotation Xrotation Zrotation
   JOINT LeftAnkle
   {
    OFFSET 0.000000 -41.365147 0.021264
    CHANNELS 3 Yrotation Xrotation Zrotation
    JOINT LeftToe
    {
     OFFSET 0.000000 -7.465940 17.672538
     CHANNELS 3 Yrotation Xrotation Zrotation
     End Site
     {
      OFFSET 0.000000 -1.736315 7.837145
     }
    }
   }
  }
 }
}
MOTION
Frames: 7
Frame Time: 0.016667
80.167822 106.382810 148.074082 117.273091 -7.517617 -1.396243 -2.543885 6.554858 0.141442 -1.130711 2.912467 0.098744 -1.130711 2.912467 0.098744 -0.848322 2.184176 0.079435 -3.949815 15.003652 0.249127 -7.492114 -8.206038 1.959874 4.846706 0.951458 9.682606 3.487994 -8.823471 75.865771 4.524764 -0.462347 3.947392 -4.279962 -4.328048 2.801675 -0.941951 6.889644 -4.606401 -0.349300 -15.865631 -75.858947 -3.585381 9.719193 -6.237844 5.064337 -5.283259 -6.288001 2.259693 13.191468 -1.074394 -1.099175 0.761041 -0.219912 -0.668784 -5.769297 2.737951 -0.000815 -0.432181 0.412803 -3.400440 13.668408 -3.242601 -0.434498 0.742789 0.270936 1.009587 -7.218477 2.201746 0.000000 0.000000 0.000000
80.147589 106.380361 148.199392 117.299029 -7.451244 -1.376280 -2.508745 6.503269 0.178215 -1.115648 2.889353 0.114286 -1.115648 2.889355 0.114287 -0.837098 2.166817 0.090977 -3.969525 15.035200 0.224805 -7.518243 -8.148076 1.919744 4.773469 0.985331 9.584595 3.511146 -8.721944 75.982487 4.476649 -0.434098 3.860123 -4.222538 -4.320499 2.750109 -0.940285 6.863548 -4.699906 -0.333898 -15.741436 -75.991894 -3.645277 9.788492 -6.234757 5.007071 -5.290762 -6.204775 2.271716 13.092033 -1.021641 -1.205727 0.761051 -0.183903 -0.572369 -5.790435 2.654974 -0.000796 -0.413472 0.396916 -3.337901 13.549044 -3.258407 -0.497889 0.761798 0.427832 1.027208 -7.206966 2.074511 -0.000000 0.000000 0.000000
80.127356 106.377911 148.324701 117.324986 -7.384879 -1.356290 -2.473588 6.451652 0.214892 -1.100569 2.866231 0.129792 -1.100569 2.866232 0.129792 -0.825863 2.149450 0.102490 -3.989266 15.066767 0.200524 -7.544454 -8.090072 1.879705 4.700215 1.019178 9.486544 3.534513 -8.620570 76.099298 4.428312 -0.406127 3.772865 -4.165209 -4.313001 2.698437 -0.938476 6.837657 -4.793450 -0.318632 -15.616933 -76.124488 -3.705057 9.857911 -6.231786 4.949713 -5.298067 -6.121582 2.283731 12.992564 -0.968979 -1.312302 0.760969 -0.147957 -0.475840 -5.811360 2.572033 -0.000775 -0.394756 0.381037 -3.275370 13.429726 -3.274477 -0.561381 0.780759 0.584671 1.044864 -7.195356 1.947289 0.000000 -0.000000 0.000000
80.108815 106.376351 148.449338 117.361210 -7.327734 -1.338318 -2.442786 6.403069 0.247447 -1.087356 2.844482 0.143553 -1.087356 2.844482 0.143553 -0.816018 2.133114 0.112708 -4.007852 15.100433 0.177562 -7.568910 -8.028151 1.841570 4.632689 1.049319 9.395613 3.555613 -8.525976 76.205746 4.385348 -0.379191 3.696791 -4.111832 -4.307579 2.650676 -0.934075 6.811414 -4.879832 -0.310235 -15.504976 -76.247378 -3.772447 9.924690 -6.229641 4.892841 -5.307450 -6.035429 2.295122 12.902253 -0.918981 -1.416279 0.763353 -0.118324 -0.396187 -5.830622 2.496938 -0.000617 -0.346964 0.336287 -3.226893 13.321290 -3.282086 -0.619637 0.802048 0.723806 1.061566 -7.187485 1.831039 0.000000 0.000000 0.000000
80.092196 106.376141 148.573359 117.414509 -7.282055 -1.323887 -2.418902 6.358081 0.274547 -1.077130 2.824359 0.155015 -1.077130 2.824359 0.155015 -0.808401 2.118004 0.121219 -4.025021 15.137907 0.156656 -7.591311 -7.959112 1.806501 4.572570 1.072355 9.315808 3.572276 -8.439883 76.296001 4.347162 -0.355015 3.636733 -4.064884 -4.305529 2.609680 -0.925522 6.783762 -4.955664 -0.311146 -15.410879 -76.357573 -3.852309 9.991205 -6.227241 4.836015 -5.320036 -5.942610 2.298596 12.822416 -0.875028 -1.514817 0.770627 -0.098640 -0.339563 -5.847911 2.434357 -0.000264 -0.237856 0.230970 -3.197419 13.226328 -3.275715 -0.671921 0.828240 0.837699 1.075599 -7.186362 1.731375 0.000000 -0.000000 0.000000
80.077269 106.376819 148.696707 117.478057 -7.245601 -1.311461 -2.399387 6.316128 0.297548 -1.068781 2.805607 0.164739 -1.068781 2.805607 0.164739 -0.802182 2.103925 0.128440 -4.041019 15.177485 0.137084 -7.611931 -7.886150 1.773355 4.518229 1.091743 9.243129 3.586560 -8.360541 76.375903 4.314450 -0.331687 3.587873 -4.021859 -4.305515 2.572624 -0.914405 6.755714 -5.024337 -0.318759 -15.329422 -76.458268 -3.939839 10.055110 -6.225824 4.779647 -5.334581 -5.846795 2.301432 12.751723 -0.833739 -1.610752 0.780382 -0.085272 -0.299872 -5.863702 2.379598 -0.000021 -0.099658 0.096797 -3.182009 13.142184 -3.260752 -0.718917 0.856744 0.933918 1.088691 -7.189003 1.642668 0.000000 0.000000 0.000000
80.065033 106.377891 148.818544 117.541652 -7.220853 -1.298503 -2.380951 6.278606 0.316484 -1.060853 2.788846 0.172699 -1.060853 2.788846 0.172699 -0.796271 2.091342 0.134344 -4.055414 15.216129 0.117942 -7.629775 -7.814975 1.740477 4.470449 1.114111 9.172741 3.602305 -8.289375 76.452504 4.294746 -0.304419 3.546885 -3.979159 -4.305591 2.535004 -0.903019 6.729792 -5.088816 -0.332189 -15.257701 -76.549472 -4.028295 10.106548 -6.229566 4.725585 -5.349820 -5.756050 2.324845 12.695387 -0.787579 -1.709968 0.787897 -0.073557 -0.275731 -5.877771 2.326417 0.000000 0.000000 0.000000 -3.179861 13.071805 -3.244748 -0.757400 0.882203 1.017486 1.105014 -7.190257 1.559010 0.000000 -0.000000 0.000000
